{
  "accessors": [
    {
      "bufferView": 2,
      "componentType": 5126,
      "count": 951,
      "max": [
        67.338554382324219,
        70.866607666015625,
        219.0701904296875
      ],
      "min": [
        -67.338554382324219,
        -11.077163696289062,
        -210.83137512207031
      ],
      "type": "VEC3"
    },
    {
      "bufferView": 2,
      "byteOffset": 11412,
      "componentType": 5126,
      "count": 951,
      "max": [
        1,
        1,
        1
      ],
      "min": [
        -1,
        -1,
        -1
      ],
      "type": "VEC3"
    },
    {
      "bufferView": 3,
      "componentType": 5126,
      "count": 951,
      "max": [
        1,
        1,
        1,
        1
      ],
      "min": [
        -1,
        -1,
        -1,
        -1
      ],
      "type": "VEC4"
    },
    {
      "bufferView": 1,
      "componentType": 5126,
      "count": 951,
      "max": [
        0.98533940315246582,
        0.99698114395141602
      ],
      "min": [
        0.0029772727284580469,
        0.0029829740524291992
      ],
      "type": "VEC2"
    },
    {
      "bufferView": 1,
      "byteOffset": 7608,
      "componentType": 5126,
      "count": 951,
      "max": [
        0.98533940315246582,
        0.99698114395141602
      ],
      "min": [
        0.0029772727284580469,
        0.0029829740524291992
      ],
      "type": "VEC2"
    },
    {
      "bufferView": 0,
      "componentType": 5125,
      "count": 2442,
      "max": [
        950
      ],
      "min": [
        0
      ],
      "type": "SCALAR"
    },
    {
      "bufferView": 2,
      "byteOffset": 22824,
      "componentType": 5126,
      "count": 134,
      "max": [
        102.95882415771484,
        2.1849136352539062,
        10.934063911437988
      ],
      "min": [
        -59.382770538330078,
        -2.184906005859375,
        -10.934063911437988
      ],
      "type": "VEC3"
    },
    {
      "bufferView": 2,
      "byteOffset": 24432,
      "componentType": 5126,
      "count": 134,
      "max": [
        0.9918513298034668,
        1,
        1
      ],
      "min": [
        -1,
        -1,
        -1
      ],
      "type": "VEC3"
    },
    {
      "bufferView": 3,
      "byteOffset": 15216,
      "componentType": 5126,
      "count": 134,
      "max": [
        1,
        1,
        1,
        1
      ],
      "min": [
        -0.69425344467163086,
        -0.35958403348922729,
        -1,
        -1
      ],
      "type": "VEC4"
    },
    {
      "bufferView": 1,
      "byteOffset": 15216,
      "componentType": 5126,
      "count": 134,
      "max": [
        0.89412909746170044,
        0.58299952745437622
      ],
      "min": [
        0.21014592051506042,
        0.0029741525650024414
      ],
      "type": "VEC2"
    },
    {
      "bufferView": 1,
      "byteOffset": 16288,
      "componentType": 5126,
      "count": 134,
      "max": [
        0.89412909746170044,
        0.58299952745437622
      ],
      "min": [
        0.21014592051506042,
        0.0029741525650024414
      ],
      "type": "VEC2"
    },
    {
      "bufferView": 0,
      "byteOffset": 9768,
      "componentType": 5125,
      "count": 375,
      "max": [
        133
      ],
      "min": [
        0
      ],
      "type": "SCALAR"
    }
  ],
  "asset": {
    "extras": {
      "author": "3DMaesen (https://sketchfab.com/bumstrum)",
      "license": "CC-BY-4.0 (http://creativecommons.org/licenses/by/4.0/)",
      "source": "https://sketchfab.com/3d-models/boat-5cdc4fc134e84a8d97fb2d3ffaf5c5fb",
      "title": "Boat"
    },
    "generator": "Sketchfab-8.7.0",
    "version": "2.0"
  },
  "bufferViews": [
    {
      "buffer": 0,
      "byteLength": 11268,
      "byteOffset": 0,
      "name": "floatBufferViews",
      "target": 34963
    },
    {
      "buffer": 0,
      "byteLength": 17360,
      "byteOffset": 11268,
      "byteStride": 8,
      "name": "floatBufferViews",
      "target": 34962
    },
    {
      "buffer": 0,
      "byteLength": 26040,
      "byteOffset": 28628,
      "byteStride": 12,
      "name": "floatBufferViews",
      "target": 34962
    },
    {
      "buffer": 0,
      "byteLength": 17360,
      "byteOffset": 54668,
      "byteStride": 16,
      "name": "floatBufferViews",
      "target": 34962
    }
  ],
  "buffers": [
    {
      "byteLength": 72028,
      "uri": "scene.bin"
    }
  ],
  "images": [
    {
      "uri": "textures/boat_baseColor.png"
    },
    {
      "uri": "textures/boat_metallicRoughness.png"
    },
    {
      "uri": "textures/boat_normal.png"
    }
  ],
  "materials": [
    {
      "doubleSided": false,
      "name": "boat",
      "normalTexture": {
        "index": 2,
        "scale": 1,
        "texCoord": 0
      },
      "occlusionTexture": {
        "index": 1,
        "strength": 1,
        "texCoord": 0
      },
      "pbrMetallicRoughness": {
        "baseColorFactor": [
          1,
          1,
          1,
          1
        ],
        "baseColorTexture": {
          "index": 0,
          "texCoord": 0
        },
        "metallicFactor": 1,
        "metallicRoughnessTexture": {
          "index": 1,
          "texCoord": 0
        },
        "roughnessFactor": 1
      }
    }
  ],
  "meshes": [
    {
      "name": "boat_boat_0",
      "primitives": [
        {
          "attributes": {
            "NORMAL": 1,
            "POSITION": 0,
            "TANGENT": 2,
            "TEXCOORD_0": 3,
            "TEXCOORD_1": 4
          },
          "indices": 5,
          "material": 0,
          "mode": 4
        }
      ]
    },
    {
      "name": "paddel_boat_0",
      "primitives": [
        {
          "attributes": {
            "NORMAL": 7,
            "POSITION": 6,
            "TANGENT": 8,
            "TEXCOORD_0": 9,
            "TEXCOORD_1": 10
          },
          "indices": 11,
          "material": 0,
          "mode": 4
        }
      ]
    }
  ],
  "nodes": [
    {
      "children": [
        1
      ],
      "name": "RootNode (gltf orientation matrix)",
      "rotation": [
        -0.70710678118654746,
        -0,
        -0,
        0.70710678118654757
      ]
    },
    {
      "children": [
        2
      ],
      "name": "RootNode (model correction matrix)"
    },
    {
      "children": [
        3
      ],
      "matrix": [
        1,
        0,
        0,
        0,
        0,
        0,
        1,
        0,
        0,
        -1,
        0,
        0,
        0,
        0,
        0,
        1
      ],
      "name": "01e6de31d9c04abfb80dd3ceb239b9e0.fbx"
    },
    {
      "children": [
        4
      ],
      "name": "RootNode"
    },
    {
      "children": [
        5,
        6
      ],
      "matrix": [
        1,
        0,
        0,
        0,
        0,
        0.99999999999998668,
        1.6292067073209127e-07,
        0,
        0,
        -1.6292067073209127e-07,
        0.99999999999998668,
        0,
        0,
        -8.3616600036621094,
        -1.3622872074847692e-06,
        1
      ],
      "name": "boat"
    },
    {
      "mesh": 0,
      "name": "boat_boat_0"
    },
    {
      "children": [
        7
      ],
      "matrix": [
        0.95648510522340846,
        0.26762529461782997,
        -0.11624519416511324,
        0,
        -0.26945203202497187,
        0.96301381217385118,
        6.9388939039072284e-18,
        0,
        0.11194572757983522,
        0.031322503780927158,
        0.99322054692475781,
        0,
        9.8726520538330078,
        38.638351440429688,
        9.9945230484008789,
        1
      ],
      "name": "paddel"
    },
    {
      "mesh": 1,
      "name": "paddel_boat_0"
    }
  ],
  "samplers": [
    {
      "magFilter": 9729,
      "minFilter": 9987,
      "wrapS": 10497,
      "wrapT": 10497
    }
  ],
  "scene": 0,
  "scenes": [
    {
      "name": "OSG_Scene",
      "nodes": [
        0
      ]
    }
  ],
  "textures": [
    {
      "sampler": 0,
      "source": 0
    },
    {
      "sampler": 0,
      "source": 1
    },
    {
      "sampler": 0,
      "source": 2
    }
  ]
}

