{
  "accessors": [
    {
      "bufferView": 2,
      "componentType": 5126,
      "count": 535,
      "max": [
        0.81999492645263672,
        2.1900632381439209,
        0.17962722480297089
      ],
      "min": [
        -0.81999492645263672,
        -2.3451566696166992,
        -1.2249362468719482
      ],
      "type": "VEC3"
    },
    {
      "bufferView": 2,
      "byteOffset": 6420,
      "componentType": 5126,
      "count": 535,
      "max": [
        0.99885326623916626,
        0.99997115135192871,
        0.60111469030380249
      ],
      "min": [
        -0.99885326623916626,
        -0.99870818853378296,
        -0.99999260902404785
      ],
      "type": "VEC3"
    },
    {
      "bufferView": 3,
      "componentType": 5126,
      "count": 535,
      "max": [
        1,
        0.99988418817520142,
        0.99878966808319092,
        1
      ],
      "min": [
        -1,
        -0.84446752071380615,
        -0.98974901437759399,
        1
      ],
      "type": "VEC4"
    },
    {
      "bufferView": 1,
      "componentType": 5126,
      "count": 535,
      "max": [
        0.99292224645614624,
        0.99706381559371948
      ],
      "min": [
        0.0028412453830242157,
        0.0028272697236388922
      ],
      "type": "VEC2"
    },
    {
      "bufferView": 0,
      "componentType": 5125,
      "count": 2226,
      "max": [
        534
      ],
      "min": [
        0
      ],
      "type": "SCALAR"
    },
    {
      "bufferView": 2,
      "byteOffset": 12840,
      "componentType": 5126,
      "count": 2842,
      "max": [
        0.84665948152542114,
        2.2127871513366699,
        0.53417670726776123
      ],
      "min": [
        -0.84665948152542114,
        -2.3619978427886963,
        -0.62513488531112671
      ],
      "type": "VEC3"
    },
    {
      "bufferView": 2,
      "byteOffset": 46944,
      "componentType": 5126,
      "count": 2842,
      "max": [
        0.99996531009674072,
        1,
        1
      ],
      "min": [
        -0.99996531009674072,
        -1,
        -1
      ],
      "type": "VEC3"
    },
    {
      "bufferView": 3,
      "byteOffset": 8560,
      "componentType": 5126,
      "count": 2842,
      "max": [
        1,
        1,
        1,
        1
      ],
      "min": [
        -1,
        -1,
        -1,
        -1
      ],
      "type": "VEC4"
    },
    {
      "bufferView": 1,
      "byteOffset": 4280,
      "componentType": 5126,
      "count": 2842,
      "max": [
        0.99699950218200684,
        0.97254931926727295
      ],
      "min": [
        0.0028070427943021059,
        0.0027773373294621706
      ],
      "type": "VEC2"
    },
    {
      "bufferView": 0,
      "byteOffset": 8904,
      "componentType": 5125,
      "count": 7590,
      "max": [
        2841
      ],
      "min": [
        0
      ],
      "type": "SCALAR"
    },
    {
      "bufferView": 2,
      "byteOffset": 81048,
      "componentType": 5126,
      "count": 2663,
      "max": [
        0.92337298393249512,
        2.2380044460296631,
        0.12795308232307434
      ],
      "min": [
        -0.92337298393249512,
        -1.1102279424667358,
        -0.56507861614227295
      ],
      "type": "VEC3"
    },
    {
      "bufferView": 2,
      "byteOffset": 113004,
      "componentType": 5126,
      "count": 2663,
      "max": [
        1,
        1,
        1
      ],
      "min": [
        -1,
        -1,
        -1
      ],
      "type": "VEC3"
    },
    {
      "bufferView": 3,
      "byteOffset": 54032,
      "componentType": 5126,
      "count": 2663,
      "max": [
        1,
        1,
        1,
        1
      ],
      "min": [
        -1,
        -1,
        -1,
        1
      ],
      "type": "VEC4"
    },
    {
      "bufferView": 1,
      "byteOffset": 27016,
      "componentType": 5126,
      "count": 2663,
      "max": [
        0.99716347455978394,
        0.99279963970184326
      ],
      "min": [
        0.0028240985702723265,
        0.0028074695728719234
      ],
      "type": "VEC2"
    },
    {
      "bufferView": 0,
      "byteOffset": 39264,
      "componentType": 5125,
      "count": 8382,
      "max": [
        2662
      ],
      "min": [
        0
      ],
      "type": "SCALAR"
    },
    {
      "bufferView": 2,
      "byteOffset": 144960,
      "componentType": 5126,
      "count": 3689,
      "max": [
        0.75602281093597412,
        2.1961109638214111,
        2.0028631687164307
      ],
      "min": [
        -0.75602281093597412,
        -1.7481451034545898,
        -1.1620280742645264
      ],
      "type": "VEC3"
    },
    {
      "bufferView": 2,
      "byteOffset": 189228,
      "componentType": 5126,
      "count": 3689,
      "max": [
        1,
        1,
        1
      ],
      "min": [
        -1,
        -1,
        -1
      ],
      "type": "VEC3"
    },
    {
      "bufferView": 3,
      "byteOffset": 96640,
      "componentType": 5126,
      "count": 3689,
      "max": [
        1,
        1,
        1,
        1
      ],
      "min": [
        -1,
        -1,
        -1,
        1
      ],
      "type": "VEC4"
    },
    {
      "bufferView": 1,
      "byteOffset": 48320,
      "componentType": 5126,
      "count": 3689,
      "max": [
        0.9971274733543396,
        0.99432456493377686
      ],
      "min": [
        0.002806282602250576,
        0.0028054495342075825
      ],
      "type": "VEC2"
    },
    {
      "bufferView": 0,
      "byteOffset": 72792,
      "componentType": 5125,
      "count": 9078,
      "max": [
        3688
      ],
      "min": [
        0
      ],
      "type": "SCALAR"
    },
    {
      "bufferView": 2,
      "byteOffset": 233496,
      "componentType": 5126,
      "count": 20,
      "max": [
        0.32023167610168457,
        -1.4039961099624634,
        0.8860664963722229
      ],
      "min": [
        0.28222164511680603,
        -1.4478863477706909,
        0.85181903839111328
      ],
      "type": "VEC3"
    },
    {
      "bufferView": 2,
      "byteOffset": 233736,
      "componentType": 5126,
      "count": 20,
      "max": [
        0.56680154800415039,
        0.65448081493377686,
        0.76569831371307373
      ],
      "min": [
        -0.56680154800415039,
        -0.65448081493377686,
        -0.75608134269714355
      ],
      "type": "VEC3"
    },
    {
      "bufferView": 3,
      "byteOffset": 155664,
      "componentType": 5126,
      "count": 20,
      "max": [
        0.99206370115280151,
        0.94688183069229126,
        0.26219445466995239,
        1
      ],
      "min": [
        -0.98969542980194092,
        -0.64421683549880981,
        -0.65447771549224854,
        1
      ],
      "type": "VEC4"
    },
    {
      "bufferView": 1,
      "byteOffset": 77832,
      "componentType": 5126,
      "count": 20,
      "max": [
        0.54550975561141968,
        0.9501158595085144
      ],
      "min": [
        0.042747188359498978,
        0.17149023711681366
      ],
      "type": "VEC2"
    },
    {
      "bufferView": 0,
      "byteOffset": 109104,
      "componentType": 5125,
      "count": 36,
      "max": [
        19
      ],
      "min": [
        0
      ],
      "type": "SCALAR"
    },
    {
      "bufferView": 2,
      "byteOffset": 233976,
      "componentType": 5126,
      "count": 20,
      "max": [
        -0.28222167491912842,
        -1.4039961099624634,
        0.8860664963722229
      ],
      "min": [
        -0.32023167610168457,
        -1.4478863477706909,
        0.85181903839111328
      ],
      "type": "VEC3"
    },
    {
      "bufferView": 2,
      "byteOffset": 234216,
      "componentType": 5126,
      "count": 20,
      "max": [
        0.56680154800415039,
        0.65448081493377686,
        0.76569086313247681
      ],
      "min": [
        -0.56680154800415039,
        -0.65448081493377686,
        -0.75608134269714355
      ],
      "type": "VEC3"
    },
    {
      "bufferView": 3,
      "byteOffset": 155984,
      "componentType": 5126,
      "count": 20,
      "max": [
        0.99227827787399292,
        0.94687259197235107,
        0.65447771549224854,
        1
      ],
      "min": [
        -0.98970919847488403,
        -0.64423555135726929,
        -0.26210489869117737,
        1
      ],
      "type": "VEC4"
    },
    {
      "bufferView": 1,
      "byteOffset": 77992,
      "componentType": 5126,
      "count": 20,
      "max": [
        0.99669384956359863,
        0.95011746883392334
      ],
      "min": [
        0.052732158452272415,
        0.025316799059510231
      ],
      "type": "VEC2"
    },
    {
      "bufferView": 0,
      "byteOffset": 109248,
      "componentType": 5125,
      "count": 36,
      "max": [
        19
      ],
      "min": [
        0
      ],
      "type": "SCALAR"
    },
    {
      "bufferView": 2,
      "byteOffset": 234456,
      "componentType": 5126,
      "count": 40,
      "max": [
        0.44351363182067871,
        -0.23144640028476715,
        0.63094896078109741
      ],
      "min": [
        -0.4483988881111145,
        -1.5549325942993164,
        0.055010013282299042
      ],
      "type": "VEC3"
    },
    {
      "bufferView": 2,
      "byteOffset": 234936,
      "componentType": 5126,
      "count": 40,
      "max": [
        1,
        1,
        0
      ],
      "min": [
        -1,
        -0.93146711587905884,
        -0.2647208571434021
      ],
      "type": "VEC3"
    },
    {
      "bufferView": 3,
      "byteOffset": 156304,
      "componentType": 5126,
      "count": 40,
      "max": [
        0.96738988161087036,
        0.99999994039535522,
        0.17523019015789032,
        1
      ],
      "min": [
        -1,
        -1,
        -0.025263439863920212,
        1
      ],
      "type": "VEC4"
    },
    {
      "bufferView": 1,
      "byteOffset": 78152,
      "componentType": 5126,
      "count": 40,
      "max": [
        0.95841985940933228,
        0.95484012365341187
      ],
      "min": [
        0.11973477154970169,
        0.52582865953445435
      ],
      "type": "VEC2"
    },
    {
      "bufferView": 0,
      "byteOffset": 109392,
      "componentType": 5125,
      "count": 60,
      "max": [
        39
      ],
      "min": [
        0
      ],
      "type": "SCALAR"
    }
  ],
  "asset": {
    "extras": {
      "author": "Batuhan13 (https://sketchfab.com/Batuhan13)",
      "license": "CC-BY-4.0 (http://creativecommons.org/licenses/by/4.0/)",
      "source": "https://sketchfab.com/3d-models/fisher-boat-385b039e95754dca8d8c045ed0c515cf",
      "title": "Fisher boat"
    },
    "generator": "Sketchfab-6.75.0",
    "version": "2.0"
  },
  "bufferViews": [
    {
      "buffer": 0,
      "byteLength": 109632,
      "byteOffset": 0,
      "name": "floatBufferViews",
      "target": 34963
    },
    {
      "buffer": 0,
      "byteLength": 78472,
      "byteOffset": 109632,
      "byteStride": 8,
      "name": "floatBufferViews",
      "target": 34962
    },
    {
      "buffer": 0,
      "byteLength": 235416,
      "byteOffset": 188104,
      "byteStride": 12,
      "name": "floatBufferViews",
      "target": 34962
    },
    {
      "buffer": 0,
      "byteLength": 156944,
      "byteOffset": 423520,
      "byteStride": 16,
      "name": "floatBufferViews",
      "target": 34962
    }
  ],
  "buffers": [
    {
      "byteLength": 580464,
      "uri": "scene.bin"
    }
  ],
  "images": [
    {
      "uri": "textures/MainColor_baseColor.png"
    },
    {
      "uri": "textures/MainColor_metallicRoughness.png"
    },
    {
      "uri": "textures/MainColor_normal.png"
    },
    {
      "uri": "textures/Wood_baseColor.png"
    },
    {
      "uri": "textures/Wood_metallicRoughness.png"
    },
    {
      "uri": "textures/Wood_normal.png"
    },
    {
      "uri": "textures/Plastic_baseColor.png"
    },
    {
      "uri": "textures/Plastic_metallicRoughness.png"
    },
    {
      "uri": "textures/Plastic_normal.png"
    },
    {
      "uri": "textures/Metal_baseColor.png"
    },
    {
      "uri": "textures/Metal_metallicRoughness.png"
    },
    {
      "uri": "textures/Metal_normal.png"
    },
    {
      "uri": "textures/GreenLight_normal.png"
    },
    {
      "uri": "textures/RedLight_normal.png"
    },
    {
      "uri": "textures/Glass_baseColor.png"
    },
    {
      "uri": "textures/Glass_metallicRoughness.png"
    },
    {
      "uri": "textures/Glass_normal.png"
    }
  ],
  "materials": [
    {
      "doubleSided": true,
      "emissiveFactor": [
        0,
        0,
        0
      ],
      "name": "MainColor",
      "normalTexture": {
        "index": 2,
        "scale": 1,
        "texCoord": 0
      },
      "pbrMetallicRoughness": {
        "baseColorFactor": [
          1,
          1,
          1,
          1
        ],
        "baseColorTexture": {
          "index": 0,
          "texCoord": 0
        },
        "metallicFactor": 1,
        "metallicRoughnessTexture": {
          "index": 1,
          "texCoord": 0
        },
        "roughnessFactor": 0.60166667591441758
      }
    },
    {
      "doubleSided": true,
      "emissiveFactor": [
        0,
        0,
        0
      ],
      "name": "Wood",
      "normalTexture": {
        "index": 5,
        "scale": 1,
        "texCoord": 0
      },
      "pbrMetallicRoughness": {
        "baseColorFactor": [
          1,
          1,
          1,
          1
        ],
        "baseColorTexture": {
          "index": 3,
          "texCoord": 0
        },
        "metallicFactor": 1,
        "metallicRoughnessTexture": {
          "index": 4,
          "texCoord": 0
        },
        "roughnessFactor": 1
      }
    },
    {
      "doubleSided": true,
      "emissiveFactor": [
        0,
        0,
        0
      ],
      "name": "Plastic",
      "normalTexture": {
        "index": 8,
        "scale": 1,
        "texCoord": 0
      },
      "pbrMetallicRoughness": {
        "baseColorFactor": [
          1,
          1,
          1,
          1
        ],
        "baseColorTexture": {
          "index": 6,
          "texCoord": 0
        },
        "metallicFactor": 1,
        "metallicRoughnessTexture": {
          "index": 7,
          "texCoord": 0
        },
        "roughnessFactor": 0.13500000924775094
      }
    },
    {
      "doubleSided": true,
      "emissiveFactor": [
        0,
        0,
        0
      ],
      "name": "Metal",
      "normalTexture": {
        "index": 11,
        "scale": 1,
        "texCoord": 0
      },
      "pbrMetallicRoughness": {
        "baseColorFactor": [
          1,
          1,
          1,
          1
        ],
        "baseColorTexture": {
          "index": 9,
          "texCoord": 0
        },
        "metallicFactor": 1,
        "metallicRoughnessTexture": {
          "index": 10,
          "texCoord": 0
        },
        "roughnessFactor": 0.63196970621744797
      }
    },
    {
      "doubleSided": true,
      "emissiveFactor": [
        0.037819780665314093,
        1,
        0
      ],
      "name": "GreenLight",
      "normalTexture": {
        "index": 12,
        "scale": 1,
        "texCoord": 0
      },
      "pbrMetallicRoughness": {
        "baseColorFactor": [
          0.050175299999999909,
          0.79999999999999993,
          0.03792719999999998,
          1
        ],
        "metallicFactor": 0,
        "roughnessFactor": 0.85656630381607624
      }
    },
    {
      "doubleSided": true,
      "emissiveFactor": [
        1,
        0.080549400000000049,
        0
      ],
      "name": "RedLight",
      "normalTexture": {
        "index": 13,
        "scale": 1,
        "texCoord": 0
      },
      "pbrMetallicRoughness": {
        "baseColorFactor": [
          0.79999999999999993,
          0.0080549400000000052,
          0,
          1
        ],
        "metallicFactor": 0,
        "roughnessFactor": 0.95692795360191107
      }
    },
    {
      "alphaMode": "BLEND",
      "doubleSided": true,
      "emissiveFactor": [
        0,
        0,
        0
      ],
      "name": "Glass",
      "normalTexture": {
        "index": 16,
        "scale": 1,
        "texCoord": 0
      },
      "pbrMetallicRoughness": {
        "baseColorFactor": [
          1,
          1,
          1,
          1
        ],
        "baseColorTexture": {
          "index": 14,
          "texCoord": 0
        },
        "metallicFactor": 1,
        "metallicRoughnessTexture": {
          "index": 15,
          "texCoord": 0
        },
        "roughnessFactor": 1
      }
    }
  ],
  "meshes": [
    {
      "name": "Cube.022_MainColor_0",
      "primitives": [
        {
          "attributes": {
            "NORMAL": 1,
            "POSITION": 0,
            "TANGENT": 2,
            "TEXCOORD_0": 3
          },
          "indices": 4,
          "material": 0,
          "mode": 4
        }
      ]
    },
    {
      "name": "Cube.022_Wood_0",
      "primitives": [
        {
          "attributes": {
            "NORMAL": 6,
            "POSITION": 5,
            "TANGENT": 7,
            "TEXCOORD_0": 8
          },
          "indices": 9,
          "material": 1,
          "mode": 4
        }
      ]
    },
    {
      "name": "Cube.022_Plastic_0",
      "primitives": [
        {
          "attributes": {
            "NORMAL": 11,
            "POSITION": 10,
            "TANGENT": 12,
            "TEXCOORD_0": 13
          },
          "indices": 14,
          "material": 2,
          "mode": 4
        }
      ]
    },
    {
      "name": "Cube.022_Metal_0",
      "primitives": [
        {
          "attributes": {
            "NORMAL": 16,
            "POSITION": 15,
            "TANGENT": 17,
            "TEXCOORD_0": 18
          },
          "indices": 19,
          "material": 3,
          "mode": 4
        }
      ]
    },
    {
      "name": "Cube.022_GreenLight_0",
      "primitives": [
        {
          "attributes": {
            "NORMAL": 21,
            "POSITION": 20,
            "TANGENT": 22,
            "TEXCOORD_0": 23
          },
          "indices": 24,
          "material": 4,
          "mode": 4
        }
      ]
    },
    {
      "name": "Cube.022_RedLight_0",
      "primitives": [
        {
          "attributes": {
            "NORMAL": 26,
            "POSITION": 25,
            "TANGENT": 27,
            "TEXCOORD_0": 28
          },
          "indices": 29,
          "material": 5,
          "mode": 4
        }
      ]
    },
    {
      "name": "Cube.022_Glass_0",
      "primitives": [
        {
          "attributes": {
            "NORMAL": 31,
            "POSITION": 30,
            "TANGENT": 32,
            "TEXCOORD_0": 33
          },
          "indices": 34,
          "material": 6,
          "mode": 4
        }
      ]
    }
  ],
  "nodes": [
    {
      "children": [
        1
      ],
      "name": "RootNode (gltf orientation matrix)",
      "rotation": [
        -0.70710678118654746,
        -0,
        -0,
        0.70710678118654757
      ]
    },
    {
      "children": [
        2
      ],
      "name": "RootNode (model correction matrix)"
    },
    {
      "children": [
        3
      ],
      "matrix": [
        1,
        0,
        0,
        0,
        0,
        0,
        1,
        0,
        0,
        -1,
        0,
        0,
        0,
        0,
        0,
        1
      ],
      "name": "gemiLow.fbx"
    },
    {
      "children": [
        4
      ],
      "name": "RootNode"
    },
    {
      "children": [
        5,
        6,
        7,
        8,
        9,
        10,
        11
      ],
      "matrix": [
        100,
        0,
        0,
        0,
        -0,
        -1.6292067939183141e-05,
        -99.999999999998678,
        0,
        0,
        99.999999999998678,
        -1.6292067939183141e-05,
        0,
        -606.15704345703125,
        0,
        0,
        1
      ],
      "name": "Cube.022"
    },
    {
      "mesh": 0,
      "name": "Cube.022_MainColor_0"
    },
    {
      "mesh": 1,
      "name": "Cube.022_Wood_0"
    },
    {
      "mesh": 2,
      "name": "Cube.022_Plastic_0"
    },
    {
      "mesh": 3,
      "name": "Cube.022_Metal_0"
    },
    {
      "mesh": 4,
      "name": "Cube.022_GreenLight_0"
    },
    {
      "mesh": 5,
      "name": "Cube.022_RedLight_0"
    },
    {
      "mesh": 6,
      "name": "Cube.022_Glass_0"
    }
  ],
  "samplers": [
    {
      "magFilter": 9729,
      "minFilter": 9987,
      "wrapS": 10497,
      "wrapT": 10497
    }
  ],
  "scene": 0,
  "scenes": [
    {
      "name": "OSG_Scene",
      "nodes": [
        0
      ]
    }
  ],
  "textures": [
    {
      "sampler": 0,
      "source": 0
    },
    {
      "sampler": 0,
      "source": 1
    },
    {
      "sampler": 0,
      "source": 2
    },
    {
      "sampler": 0,
      "source": 3
    },
    {
      "sampler": 0,
      "source": 4
    },
    {
      "sampler": 0,
      "source": 5
    },
    {
      "sampler": 0,
      "source": 6
    },
    {
      "sampler": 0,
      "source": 7
    },
    {
      "sampler": 0,
      "source": 8
    },
    {
      "sampler": 0,
      "source": 9
    },
    {
      "sampler": 0,
      "source": 10
    },
    {
      "sampler": 0,
      "source": 11
    },
    {
      "sampler": 0,
      "source": 12
    },
    {
      "sampler": 0,
      "source": 13
    },
    {
      "sampler": 0,
      "source": 14
    },
    {
      "sampler": 0,
      "source": 15
    },
    {
      "sampler": 0,
      "source": 16
    }
  ]
}

