{
  "accessors": [
    {
      "bufferView": 2,
      "componentType": 5126,
      "count": 5960,
      "max": [
        182.73800659179688,
        257.8035888671875,
        302.689208984375
      ],
      "min": [
        -181.89399719238281,
        -187.03129577636719,
        -292.21719360351562
      ],
      "type": "VEC3"
    },
    {
      "bufferView": 2,
      "byteOffset": 71520,
      "componentType": 5126,
      "count": 5960,
      "max": [
        0.99989235401153564,
        0.99936592578887939,
        0.99999237060546875
      ],
      "min": [
        -0.99999344348907471,
        -0.99991726875305176,
        -0.99935257434844971
      ],
      "type": "VEC3"
    },
    {
      "bufferView": 3,
      "componentType": 5126,
      "count": 5960,
      "max": [
        1,
        0.99870514869689941,
        0.99956470727920532,
        1
      ],
      "min": [
        -0.99975043535232544,
        -0.99995243549346924,
        -0.99956035614013672,
        -1
      ],
      "type": "VEC4"
    },
    {
      "bufferView": 1,
      "componentType": 5126,
      "count": 5960,
      "max": [
        1,
        1
      ],
      "min": [
        0,
        -0.00279999990016222
      ],
      "type": "VEC2"
    },
    {
      "bufferView": 0,
      "componentType": 5125,
      "count": 34476,
      "max": [
        5959
      ],
      "min": [
        0
      ],
      "type": "SCALAR"
    },
    {
      "bufferView": 2,
      "byteOffset": 143040,
      "componentType": 5126,
      "count": 342,
      "max": [
        95.026100158691406,
        -105.41169738769531,
        77.504096984863281
      ],
      "min": [
        -96.062599182128906,
        -132.2052001953125,
        48.515598297119141
      ],
      "type": "VEC3"
    },
    {
      "bufferView": 2,
      "byteOffset": 147144,
      "componentType": 5126,
      "count": 342,
      "max": [
        0.88279104232788086,
        0.11299581080675125,
        0.42561241984367371
      ],
      "min": [
        -0.88690096139907837,
        -0.99784982204437256,
        -0.98930108547210693
      ],
      "type": "VEC3"
    },
    {
      "bufferView": 3,
      "byteOffset": 95360,
      "componentType": 5126,
      "count": 342,
      "max": [
        0.99998164176940918,
        0.86903369426727295,
        0.31223839521408081,
        1
      ],
      "min": [
        0.28890255093574524,
        -0.94291085004806519,
        -0.22340776026248932,
        1
      ],
      "type": "VEC4"
    },
    {
      "bufferView": 1,
      "byteOffset": 47680,
      "componentType": 5126,
      "count": 342,
      "max": [
        0.94279998540878296,
        0.81089997291564941
      ],
      "min": [
        0.057000000029802322,
        -0.0098999999463558197
      ],
      "type": "VEC2"
    },
    {
      "bufferView": 0,
      "byteOffset": 137904,
      "componentType": 5125,
      "count": 1848,
      "max": [
        341
      ],
      "min": [
        0
      ],
      "type": "SCALAR"
    }
  ],
  "asset": {
    "extras": {
      "author": "Suharman Putra (https://sketchfab.com/suharmanputra)",
      "license": "CC-BY-4.0 (http://creativecommons.org/licenses/by/4.0/)",
      "source": "https://sketchfab.com/models/e2b2143b03714b97afc9c87f8d75acb3",
      "title": "Face"
    },
    "generator": "Sketchfab-3.20.7",
    "version": "2.0"
  },
  "bufferViews": [
    {
      "buffer": 0,
      "byteLength": 145296,
      "byteOffset": 0,
      "name": "floatBufferViews",
      "target": 34963
    },
    {
      "buffer": 0,
      "byteLength": 50416,
      "byteOffset": 145296,
      "byteStride": 8,
      "name": "floatBufferViews",
      "target": 34962
    },
    {
      "buffer": 0,
      "byteLength": 151248,
      "byteOffset": 195712,
      "byteStride": 12,
      "name": "floatBufferViews",
      "target": 34962
    },
    {
      "buffer": 0,
      "byteLength": 100832,
      "byteOffset": 346960,
      "byteStride": 16,
      "name": "floatBufferViews",
      "target": 34962
    }
  ],
  "buffers": [
    {
      "byteLength": 447792,
      "uri": "scene.bin"
    }
  ],
  "images": [
    {
      "uri": "textures/12___Default_baseColor.png"
    },
    {
      "uri": "textures/12___Default_emissive.png"
    },
    {
      "uri": "textures/Texture4_baseColor.png"
    },
    {
      "uri": "textures/Texture4_emissive.png"
    }
  ],
  "materials": [
    {
      "doubleSided": true,
      "emissiveFactor": [
        0,
        0,
        0
      ],
      "emissiveTexture": {
        "index": 1,
        "texCoord": 0
      },
      "name": "12___Default",
      "pbrMetallicRoughness": {
        "baseColorFactor": [
          1,
          1,
          1,
          1
        ],
        "baseColorTexture": {
          "index": 0,
          "texCoord": 0
        },
        "metallicFactor": 0.1968368902,
        "roughnessFactor": 0
      }
    },
    {
      "doubleSided": true,
      "emissiveFactor": [
        0,
        0,
        0
      ],
      "emissiveTexture": {
        "index": 3,
        "texCoord": 0
      },
      "name": "Texture4",
      "pbrMetallicRoughness": {
        "baseColorFactor": [
          1,
          1,
          1,
          1
        ],
        "baseColorTexture": {
          "index": 2,
          "texCoord": 0
        },
        "metallicFactor": 0,
        "roughnessFactor": 0.43730945119999998
      }
    }
  ],
  "meshes": [
    {
      "primitives": [
        {
          "attributes": {
            "NORMAL": 1,
            "POSITION": 0,
            "TANGENT": 2,
            "TEXCOORD_0": 3
          },
          "indices": 4,
          "material": 1,
          "mode": 4
        }
      ]
    },
    {
      "primitives": [
        {
          "attributes": {
            "NORMAL": 6,
            "POSITION": 5,
            "TANGENT": 7,
            "TEXCOORD_0": 8
          },
          "indices": 9,
          "material": 0,
          "mode": 4
        }
      ]
    }
  ],
  "nodes": [
    {
      "children": [
        1
      ],
      "name": "RootNode (gltf orientation matrix)",
      "rotation": [
        -0.70710678118654746,
        -0,
        -0,
        0.70710678118654757
      ]
    },
    {
      "children": [
        2
      ],
      "name": "RootNode (model correction matrix)"
    },
    {
      "children": [
        3,
        4
      ],
      "name": "face.obj.cleaner.materialmerger.gles"
    },
    {
      "mesh": 0,
      "name": ""
    },
    {
      "mesh": 1,
      "name": ""
    }
  ],
  "samplers": [
    {
      "magFilter": 9729,
      "minFilter": 9987,
      "wrapS": 10497,
      "wrapT": 10497
    }
  ],
  "scene": 0,
  "scenes": [
    {
      "name": "OSG_Scene",
      "nodes": [
        0
      ]
    }
  ],
  "textures": [
    {
      "sampler": 0,
      "source": 0
    },
    {
      "sampler": 0,
      "source": 1
    },
    {
      "sampler": 0,
      "source": 2
    },
    {
      "sampler": 0,
      "source": 3
    }
  ]
}

